<?xml version="1.0" encoding="utf-8"?>
<!-- Generator: Adobe Illustrator 25.4.1, SVG Export Plug-In . SVG Version: 6.00 Build 0)  -->
<svg version="1.1" id="Calque_1" xmlns="http://www.w3.org/2000/svg" xmlns:xlink="http://www.w3.org/1999/xlink" x="0px" y="0px"
	 viewBox="0 0 1255.1 1188.1" style="enable-background:new 0 0 1255.1 1188.1;" xml:space="preserve">
<style type="text/css">
	.st0{opacity:0.26;}
	.st1{fill:#CF3F3E;}
	.st2{display:none;opacity:0.42;}
</style>
<g id="Layer_2">
</g>
<g id="Layer_3" class="st0">
	<g>
		<path class="st1" d="M1160.5,724.9c-33.4,167.2-201.7,295.7-294,354.9h-44.7c42-103.5,130.5-406-181.1-573.6
			c0,0,43,164.9-107.5,304.7c0.7-1.7,20.8-55.2-18-143.4c0,0-53.8,129.1-104,190c-43.6,53-81.8,105.9-58.1,222.3H236.4
			C64.8,967.1,57.3,804.9,138.9,696.2c96.8-129,132.6-272.4,132.6-272.4c46.6,53.8,46.6,154.1,46.6,154.1
			C619.2,309,576.2,108.3,576.2,108.3C816.4,176.4,906,456,906,456c57.4-71.7,25.1-179.2,25.1-179.2
			C967,309,1207.1,491.9,1160.5,724.9z"/>
	</g>
</g>
<g id="Layer_1" class="st2">
	
		<image style="display:inline;overflow:visible;enable-background:new    ;" width="171" height="142" xlink:href="2D720862.jpeg"  transform="matrix(2.2113 0 0 2.2113 446.8262 437.0318)">
	</image>
</g>
</svg>
